<?xml version="1.0" encoding="UTF-8"?><svg xmlns="http://www.w3.org/2000/svg" xmlns:xlink="http://www.w3.org/1999/xlink" version="1.1" id="Layer_1" x="0px" y="0px" viewBox="0 0 100 100" xml:space="preserve"><path fill="#E64B3F" d="M88 2H12C6.477 2 2 6.477 2 12v76c0 5.523 4.477 10 10 10h76c5.523 0 10-4.477 10-10V12c0-5.523-4.477-10-10-10z"/><path fill="#FFF" d="M67.98 44.897c-3.227-2.666-6.706-3.83-9.048-4.068L47.758 29.655a1.03 1.03 0 0 0-1.414 0l-.332.333c-.024-.004-.043-.018-.067-.02-2.953-.276-5.78.128-8.393 1.202-2.111.869-5.002 2.058-6.204 5.08-.346.873-1.035 3.138.03 5.33.335.688.799 1.233 1.344 1.698l-5.365 5.365c-.886.885-1.373 2.063-1.373 3.315s.487 2.429 1.373 3.314l13.98 13.98c.886.887 2.063 1.374 3.315 1.374s2.429-.487 3.314-1.373l17.96-17.96c1.553 3.671 1.66 6.129 1.55 7.887-.014.216-.312 5.341 1.235 8.428.699 1.39 1.488 1.683 2.026 1.683 1.23 0 1.883-1.337 2.08-1.817a23.245 23.245 0 0 0 1.18-8.275c-.095-2.387-.387-9.653-6.017-14.302zm-34.803-4.191c-.738-1.519-.164-3.23.03-3.718.888-2.234 3.227-3.196 5.107-3.969 1.817-.747 3.759-1.112 5.787-1.12l-9.962 9.962c-.417-.33-.74-.701-.962-1.155zm13.375 27.133c-1.015 1.015-2.785 1.015-3.8 0L28.77 53.858c-.508-.508-.787-1.183-.787-1.9s.28-1.393.787-1.9l5.688-5.689c.958.448 2.04.796 3.199 1.129.624.18 1.202.365 1.779.55 1.983.636 4.054 1.29 7.827 1.67.4 1.35 1.634 2.347 3.111 2.347 1.8 0 3.26-1.47 3.26-3.27 0-1.79-1.46-3.26-3.26-3.26-1.417 0-2.612.917-3.06 2.179-3.462-.36-5.326-.948-7.267-1.57a61.074 61.074 0 0 0-1.838-.568 26.321 26.321 0 0 1-2.228-.73l11.07-11.07 17.781 17.782-18.28 18.28z"/><metadata><rdf:RDF xmlns:rdf="http://www.w3.org/1999/02/22-rdf-syntax-ns#" xmlns:rdfs="http://www.w3.org/2000/01/rdf-schema#" xmlns:dc="http://purl.org/dc/elements/1.1/"><rdf:Description about="https://iconscout.com/legal#licenses" dc:title="paint,color,art,bucket" dc:description="paint,color,art,bucket" dc:publisher="Iconscout" dc:date="2017-11-13" dc:format="image/svg+xml" dc:language="en"><dc:creator><rdf:Bag><rdf:li>Dinosoft Labs</rdf:li></rdf:Bag></dc:creator></rdf:Description></rdf:RDF></metadata></svg>